Coordinates
version=1
nRows=5
nColumns=107
inDegrees=yes

Units are S.I. units (second, meters, Newtons, ...)
If the header above contains a line with 'inDegrees', this indicates whether rotational values are in degrees (yes) or radians (no).

endheader
time	sternoclavicular_r2	sternoclavicular_r3	unrotscap_r3	unrotscap_r2	acromioclavicular_r2	acromioclavicular_r3	acromioclavicular_r1	unrothum_r1	unrothum_r3	unrothum_r2	elv_angle	shoulder_elv	shoulder1_r2	shoulder_rot	elbow_flexion	pro_sup	deviation	flexion	proximal_distal_r1	proximal_distal_r3	cmc_flexion	cmc_abduction	mp_flexion	ip_flexion	mcp2_flexion	mcp2_abduction	pm2_flexion	md2_flexion	mcp3_flexion	mcp3_abduction	pm3_flexion	md3_flexion	mcp4_flexion	mcp4_abduction	pm4_flexion	md4_flexion	mcp5_flexion	mcp5_abduction	pm5_flexion	md5_flexion	bicpt_tx	bicpt_ty	bicpt_tz	bicpt2_tx	bicpt2_ty	bicpt2_tz	ptpt_tx	ptpt_ty	ptpt_tz	FCUpt_tx	FCUpt_ty	FCUpt_tz	EDCpt_tx	EDCpt_ty	EDCpt_tz	APLpt_tx	APLpt_ty	APLpt_tz	FPLpt_tx	FPLpt_ty	FPLpt_tz	FPLpt2_tx	FPLpt2_ty	FPLpt2_tz	PEC1pt2_tx	PEC1pt2_ty	PEC1pt2_tz	PEC1pt3_tx	PEC1pt3_ty	PEC1pt3_tz	PEC2pt2_tx	PEC2pt2_ty	PEC2pt2_tz	PEC2pt3_tx	PEC2pt3_ty	PEC2pt3_tz	PEC3pt2_tx	PEC3pt2_ty	PEC3pt2_tz	PEC3pt3_tx	PEC3pt3_ty	PEC3pt3_tz	DELT2pt2a_tx	DELT2pt2a_ty	DELT2pt2a_tz	DELT2pt2_tx	DELT2pt2_ty	DELT2pt2_tz	LAT1pt2_tx	LAT1pt2_ty	LAT1pt2_tz	LAT1pt3_tx	LAT1pt3_ty	LAT1pt3_tz	LAT2pt2_tx	LAT2pt2_ty	LAT2pt2_tz	LAT2pt3_tx	LAT2pt3_ty	LAT2pt3_tz	LAT3pt2_tx	LAT3pt2_ty	LAT3pt2_tz	LAT3pt3_tx	LAT3pt3_ty	LAT3pt3_tz
      0.76666667	     -0.31332981	      0.13271172	     -0.13271172	      0.31332981	     -0.06344291	      0.51272331	      0.23046560	     -0.23046560	     -0.51272331	      0.06344291	    100.63634413	     74.18361808	     -1.75643555	    -31.80079684	     29.60835883	     11.64084338	     -0.07775985	     -1.01740136	     -0.11048018	     -0.50870068	    -12.25056906	      8.02619965	    -25.37839078	     -0.94708136	     41.01294519	     13.50098329	     10.61300913	    -37.87154592	     62.37804079	      9.33293888	     84.04983557	     62.01879443	     54.19282535	     -3.96161988	     91.39742681	     48.70885707	      5.67841507	    -12.86710798	    -17.56155539	      4.97577749	      0.00087935	     -0.03099357	     -0.00484662	      0.01560147	     -0.01824326	     -0.00993360	      0.00668987	     -0.06545617	     -0.00098773	      0.00504918	     -0.18397082	      0.00011773	     -0.00139690	      0.00035073	      0.00013207	      0.00017409	      0.00006964	      0.00034819	      0.00022284	      0.00066852	      0.00037604	     -0.00205017	      0.00038964	      0.00046757	      0.00243158	      0.00853112	      0.00593469	     -0.00795414	      0.01920533	     -0.01821621	      0.00243158	      0.00853112	      0.00593469	      0.00053577	      0.01780408	     -0.00935539	      0.00387214	      0.00474405	      0.01577937	      0.00000000	      0.00735719	      0.00000000	     -0.00696502	     -0.03218747	     -0.00606386	      0.01965462	     -0.00081901	     -0.00839502	     -0.00086548	      0.01450703	     -0.00593469	      0.00239036	      0.02093628	     -0.01730953	     -0.00581105	      0.01257001	     -0.00531650	     -0.01211667	      0.02654127	     -0.02971469	     -0.02274966	      0.01405369	     -0.00712988	     -0.01508402	      0.03066259	     -0.03713305
      0.80000000	     -0.31560425	      0.13367507	     -0.13367507	      0.31560425	     -0.06390344	      0.51644514	      0.23213853	     -0.23213853	     -0.51644514	      0.06390344	    100.00128432	     74.72211255	     -1.74535167	    -28.62703377	     29.22033412	      8.85835131	     -0.07155472	     -1.05441457	     -0.10130032	     -0.52720729	    -12.34909921	      7.45435736	    -23.92830134	      5.24016551	     39.12982984	     13.58080365	      9.48286077	    -36.00008299	     58.92629622	      9.61056109	     83.74100215	     59.84586372	     52.61338802	     -4.66742555	     87.89070449	     46.59144700	      4.68555872	    -13.55799645	    -14.60533813	      4.96476047	      0.00086652	     -0.03094910	     -0.00483945	      0.01540690	     -0.01813785	     -0.01011457	      0.00689547	     -0.06532323	     -0.00076359	      0.00479460	     -0.18400520	      0.00019982	     -0.00106300	      0.00026310	      0.00010718	      0.00014774	      0.00005910	      0.00029549	      0.00018911	      0.00056734	      0.00031913	     -0.00208582	      0.00039345	      0.00047214	      0.00244923	      0.00859305	      0.00597777	     -0.00801188	      0.01934474	     -0.01834845	      0.00244923	      0.00859305	      0.00597777	      0.00053966	      0.01793332	     -0.00942330	      0.00389286	      0.00477849	      0.01583143	      0.00000000	      0.00746508	      0.00000000	     -0.00701558	     -0.03242112	     -0.00615348	      0.01825679	     -0.00071051	     -0.00684189	     -0.00087176	      0.01461234	     -0.00597777	      0.00240771	      0.02108826	     -0.01743517	     -0.00585324	      0.01266126	     -0.00535509	     -0.01220462	      0.02673393	     -0.02993038	     -0.02291480	      0.01415570	     -0.00718163	     -0.01519351	      0.03088517	     -0.03740260
      0.83333333	     -0.31518769	      0.13349863	     -0.13349863	      0.31518769	     -0.06381910	      0.51576348	      0.23183213	     -0.23183213	     -0.51576348	      0.06381910	    100.30521826	     74.62348663	     -1.75065632	    -29.07969334	     28.73187984	      9.35621145	     -0.04594686	     -1.06455675	     -0.06408431	     -0.53227838	    -10.89225299	      7.71659050	    -22.89802483	      5.66781474	     38.16091122	     13.12466927	      9.71337015	    -35.90006731	     55.93403840	      8.40594067	     81.45937575	     59.24412128	     50.23302347	     -5.88486646	     85.81791695	     45.93338165	      4.85219178	    -13.67653375	    -14.35885815	      5.05834557	      0.00085036	     -0.03089311	     -0.00483043	      0.01544301	     -0.01800516	     -0.01008299	      0.00685868	     -0.06534702	     -0.00080369	      0.00483997	     -0.18399921	      0.00018470	     -0.00112274	      0.00027860	      0.00011194	      0.00014013	      0.00005605	      0.00028026	      0.00017937	      0.00053810	      0.00030268	     -0.00159764	      0.00033822	      0.00040586	      0.00244599	      0.00858171	      0.00596988	     -0.00800130	      0.01931921	     -0.01832423	      0.00244599	      0.00858171	      0.00596988	      0.00053895	      0.01790965	     -0.00941086	      0.00388907	      0.00477218	      0.01582194	      0.00000000	      0.00744526	      0.00000000	     -0.00700632	     -0.03237833	     -0.00613702	      0.01846438	     -0.00072581	     -0.00705590	     -0.00087061	      0.01459305	     -0.00596988	      0.00240454	      0.02106042	     -0.01741216	     -0.00584551	      0.01264455	     -0.00534802	     -0.01218851	      0.02669865	     -0.02989088	     -0.02288456	      0.01413702	     -0.00717215	     -0.01517346	      0.03084440	     -0.03735323
      0.86666667	     -0.31490981	      0.13338093	     -0.13338093	      0.31490981	     -0.06376283	      0.51530877	      0.23162775	     -0.23162775	     -0.51530877	      0.06376283	    100.09972635	     74.55769672	     -1.74706981	    -29.61233666	     29.42331910	     14.27100371	      0.08579129	     -0.83858727	      0.11040659	     -0.41929363	     -9.67433531	      6.40514260	    -18.49015571	      7.80853020	     32.85662550	     13.03346279	     12.58992053	    -29.17879553	     51.54010750	      8.13858675	     78.42727048	     51.37522635	     47.84342957	     -6.45450857	     78.44531090	     40.81884091	      5.72735849	    -13.81566185	    -11.58836064	      4.98854713	      0.00087323	     -0.03097236	     -0.00484320	      0.01576915	     -0.01819299	     -0.00975258	      0.00649553	     -0.06558184	     -0.00119961	      0.00529203	     -0.18393631	      0.00004548	     -0.00171252	      0.00043577	      0.00015175	      0.00026908	      0.00010763	      0.00053815	      0.00034442	      0.00103326	      0.00058121	     -0.00125095	      0.00029385	      0.00035263	      0.00244384	      0.00857414	      0.00596462	     -0.00799425	      0.01930218	     -0.01830807	      0.00244384	      0.00857414	      0.00596462	      0.00053847	      0.01789386	     -0.00940256	      0.00388655	      0.00476797	      0.01581561	      0.00000000	      0.00743205	      0.00000000	     -0.00700015	     -0.03234978	     -0.00612605	      0.01870540	     -0.00074388	     -0.00731075	     -0.00086984	      0.01458018	     -0.00596462	      0.00240242	      0.02104186	     -0.01739681	     -0.00584036	      0.01263340	     -0.00534331	     -0.01217777	      0.02667511	     -0.02986452	     -0.02286438	      0.01412455	     -0.00716583	     -0.01516008	      0.03081721	     -0.03732030
      0.90000000	     -0.31678727	      0.13417614	     -0.13417614	      0.31678727	     -0.06414298	      0.51838099	      0.23300869	     -0.23300869	     -0.51838099	      0.06414298	     99.56928782	     75.00220212	     -1.73781191	    -27.37847171	     29.47225209	     16.81045351	      0.24847205	     -0.61031109	      0.28667831	     -0.30515554	     -7.25849027	      6.14627673	    -16.37108641	      8.23653672	     29.73547748	     12.63887159	     14.00552073	    -27.32607745	     47.67246966	      7.10548910	     74.67458770	     47.78926456	     44.90170472	     -7.41159287	     72.62847069	     37.70416725	      6.98673277	    -13.93547582	    -10.74664285	      5.02459814	      0.00087485	     -0.03097797	     -0.00484410	      0.01591596	     -0.01820628	     -0.00956856	      0.00630790	     -0.06570316	     -0.00140417	      0.00552853	     -0.18390111	     -0.00001932	     -0.00201725	      0.00051990	      0.00016717	      0.00031250	      0.00012500	      0.00062500	      0.00040000	      0.00120000	      0.00067500	     -0.00071173	      0.00021073	      0.00025288	      0.00245841	      0.00862526	      0.00600018	     -0.00804191	      0.01941725	     -0.01841722	      0.00245841	      0.00862526	      0.00600018	      0.00054168	      0.01800054	     -0.00945862	      0.00390360	      0.00479640	      0.01585822	      0.00000000	      0.00752153	      0.00000000	     -0.00704188	     -0.03254265	     -0.00620036	      0.01766995	     -0.00066863	     -0.00626520	     -0.00087503	      0.01466711	     -0.00600018	      0.00241674	      0.02116731	     -0.01750053	     -0.00587518	      0.01270872	     -0.00537516	     -0.01225037	      0.02683414	     -0.03004257	     -0.02300069	      0.01420876	     -0.00720855	     -0.01525046	      0.03100094	     -0.03754280
